<svg fill="#fff" height="190" viewBox="0 0 150 190" width="150" xmlns="http://www.w3.org/2000/svg"><path clip-rule="evenodd" d="m129.49 114.51c-.369 2.451-1.303 4.783-2.728 6.812s-3.301 3.699-5.482 4.878c-.604.335-1.237.616-1.89.84.83 11-16.65 15-26.07 12.38l3.5 12.24-9 .32-15.75-22.55c-5.31 1.5-11.58 2.22-15.63-4.28-.3679-.597-.7018-1.215-1-1.85-1.0302.21-2.0786.317-3.13.32-3 0-8-.9-10.54-2.66-2.0137-1.335-3.6112-3.21-4.61-5.41-5.41.74-10-.53-13-3.67-3.8-3.91-4.88-10.37-2.9-17.3 2.61-9.25 10.55-19.67 26.33-23.58 1.3689-1.7018 3.0072-3.1678 4.85-4.34 9.91-6.35 26-6.9 38.21-.87 4.7336-.8818 9.62-.414 14.1 1.35 8.78 3.29 15.16 10.17 16.36 17.16 2.377 1.2317 4.323 3.1568 5.58 5.52 2.63 4.94 3 9.89 1.23 13.89 1.667 3.339 2.218 7.125 1.57 10.8zm-6.48-5.2c-1.398.738-2.954 1.124-4.535 1.124s-3.137-.386-4.535-1.124l.73-4.85c3.08.3 5.59-.66 6.9-2.63 1.47-2.19 1.24-5.44-.62-8.93-2.08-3.91-6.57-4.53-9.06-4.56h-.16c-6.24 0-12.6 3.55-15.17 8.18l-3.74-1.79c.7353-2.3851 1.9846-4.58 3.66-6.43-1.4424-1.2246-2.5326-2.8113-3.1583-4.597s-.7643-3.7059-.4017-5.563l3.69-.34c.1689 1.502.79 2.9172 1.7811 4.0583s2.3059 1.9542 3.7689 2.3317c3.078-1.3739 6.42-2.0565 9.79-2 .48 0 .94.05 1.41.08-2.391-4.2388-6.18-7.5155-10.72-9.27-11.08-4.3-18.55 2.37-20.26 4.67-4.12 5.52-1.48 10.74.53 14.13l-3.3 3c-2.874-2.486-4.8025-5.8873-5.46-9.63-4.23 1.27-9.91 1-13.09-4.43l3-2.06c3.37 2.52 8.72 2.3 11.26-.81.6052-1.3751 1.3705-2.6741 2.28-3.87 1.444-1.907 3.1864-3.5684 5.16-4.92-8.29-2.26-20-1.89-27.08 2.65-1.9132 1.111-3.488 2.7217-4.5556 4.6595-1.0675 1.9379-1.5876 4.1297-1.5044 6.3405 0 3.57 2.8 9.21 6.57 10.09l-2.19 4.25c-2.4054-.5571-4.5891-1.8213-6.27-3.63l-3.25 4.14-3.25-1.58 3.18-8.32c-.5196-1.616-.786-3.3026-.79-5 .008-1.3439.1487-2.6837.42-4-10 4.13-14.94 11-16.75 17.28-1.39 4.83-.85 9.19 1.43 11.53 1.81 1.86 4.58 2.3 7.19 2.13l7-5.45 2.3 1.94-2.08 6.82c1.09 3.47 4.66 5.26 11.17 4 .3375-2.761 1.4272-5.376 3.15-7.56 1.2633-1.818 2.9346-3.314 4.88-4.37l3.42-9.21 3.42-.15-.37 7.55c5.75-.59 12.18.58 18.17-.32l1.1 4c-8.78 4.06-17.77-2.56-25.92 6.17-2.93 3.14-1.81 5.87 0 8.62 2.61 3.93 7.51 1.57 12.52 0 7.59-2.32 13.1-4 23.49-3.15-2.48-4.71-2.24-10.4 1.08-16.66l4.89 1.93c-3.43 7.91-.22 12.49 2 14.51 3.43 3.12 8.59 4.06 12 2.18 1.306-.721 2.429-1.733 3.282-2.957s1.413-2.628 1.638-4.103c.225-1.359.208-2.747-.05-4.1z" fill="#fff" fill-rule=""/></svg>