<svg fill="#172554" height="24" viewBox="0 0 24 24" width="24" xmlns="http://www.w3.org/2000/svg"><path d="m8.09118 8h1.273c.35974.00873.64442.30725.63602.667v6.666c.0084.3597-.27628.6583-.63602.667h-1.273c-.35974-.0087-.64438-.3073-.636-.667v-1.333h-1.819c-.35974-.0087-.64438-.3073-.636-.667v-2.666c-.00838-.3597.27626-.6583.636-.667h1.819v-1.333c-.00838-.35975.27626-.65827.636-.667z" style="fill-rule:evenodd;clip-rule:evenodd;stroke:#fff;stroke-width:1.5;stroke-linecap:round;stroke-linejoin:round"/><path d="m15.9092 16h-1.273c-.3598-.0087-.6444-.3073-.636-.667v-6.666c-.0084-.35975.2762-.65827.636-.667h1.273c.3597.00873.6444.30725.636.667v1.333h1.818c.1729.0039.3372.0764.4567.2015.1194.1251.1843.2926.1803.4655v2.666c.0084.3597-.2763.6583-.636.667h-1.819v1.333c.0084.3597-.2763.6583-.636.667z" style="fill-rule:evenodd;clip-rule:evenodd;stroke:#fff;stroke-width:1.5;stroke-linecap:round;stroke-linejoin:round"/><path d="m6.7052 14c0 .4142.33579.75.75.75s.75-.3358.75-.75zm1.5-4c0-.41421-.33579-.75-.75-.75s-.75.33579-.75.75zm9.091 0c0-.41421-.3358-.75-.75-.75s-.75.33579-.75.75zm-1.5 4c0 .4142.3358.75.75.75s.75-.3358.75-.75zm-5.796-2.75c-.41421 0-.75.3358-.75.75s.33579.75.75.75zm4 1.5c.4142 0 .75-.3358.75-.75s-.3358-.75-.75-.75zm-5.795 1.25v-4h-1.5v4zm7.591-4v4h1.5v-4zm-5.796 2.75h4v-1.5h-4z" fill="#fff"/></svg>