<svg height="32" viewBox="0 0 32 32" width="32" xmlns="http://www.w3.org/2000/svg" fill="#fff"><path d="m18.605 2.022-2.256 11.856 8.174.027-11.127 16.072 2.257-13.043-8.174-.029zm.001-1.999c-.054 0-.108.002-.161.006-.353.028-.587.147-.864.333-.154.102-.295.228-.419.373-.037.043-.071.088-.103.134l-11.207 14.832c-.442.607-.508 1.407-.168 2.076s1.026 1.093 1.779 1.099l5.773.042-1.815 10.694c-.172.919.318 1.835 1.18 2.204.257.11.527.163.793.163.629 0 1.145-.294 1.533-.825l11.22-16.072c.442-.607.507-1.408.168-2.076-.34-.669-1.026-1.093-1.779-1.098l-5.773-.01 1.796-9.402c.038-.151.057-.308.057-.47 0-1.082-.861-1.964-1.939-1.999-.024-.001-.047-.001-.071-.001z"/></svg>