<svg height="24" viewBox="0 0 24 24" width="24" xmlns="http://www.w3.org/2000/svg" fill="#172554"><path d="m18.1125649 13.0304195c.0328977-.2631816.057571-.5263632.057571-.8059937s-.0246733-.5428121-.057571-.8059937l1.7353539-1.3570303c.156264-.12336639.1973862-.34542588.0986931-.52636325l-1.6448852-2.84565132c-.0986931-.18093737-.3207526-.24673277-.50169-.18093737l-2.047882.82244258c-.4276701-.32897703-.888238-.60038308-1.3899279-.80599373l-.3125282-2.17947283c-.0246733-.19738622-.1973862-.34542588-.4029969-.34542588h-3.2897703c-.2056106 0-.37832358.14803966-.40299685.34542588l-.31252818 2.17947283c-.50168998.20561065-.96225782.48524113-1.38992796.80599373l-2.04788202-.82244258c-.18916179-.07401983-.40299686 0-.50168997.18093737l-1.64488516 2.84565132c-.10691753.18093737-.05757098.40299686.09869311.52636325l1.73535384 1.3570303c-.0328977.2631816-.05757098.5345876-.05757098.8059937 0 .271406.02467328.5428121.05757098.8059937l-1.73535384 1.3570303c-.15626409.1233663-.19738622.3454258-.09869311.5263632l1.64488516 2.8456513c.09869311.1809374.3207526.2467328.50168997.1809374l2.04788202-.8224426c.42767014.328977.88823798.6003831 1.38992796.8059937l.31252818 2.1794729c.02467327.1973862.19738625.3454259.40299685.3454259h3.2897703c.2056107 0 .3783236-.1480397.4029969-.3454259l.3125282-2.1794729c.5016899-.2056106.9622578-.4852411 1.3899279-.8059937l2.047882.8224426c.1891618.0740198.4029969 0 .50169-.1809374l1.6448852-2.8456513c.0986931-.1809374.0575709-.4029969-.0986931-.5263632zm-6.1107483 2.0725553c-1.5873142 0-2.87854906-1.2912348-2.87854906-2.878549s1.29123486-2.87854904 2.87854906-2.87854904c1.5873141 0 2.878549 1.29123484 2.878549 2.87854904s-1.2912349 2.878549-2.878549 2.878549z" fill-rule="evenodd"/></svg>