<svg height="20" viewBox="0 0 20 20" width="20" xmlns="http://www.w3.org/2000/svg"><g fill="#fff" stroke="#fff" transform="translate(0 1)"><path d="m18.4999997 17.4975592c-.0000002.5536328-.446699 1.0024408-.9959423 1.0024408h-6.5040574l-9.84317793-11.24934626c-.36275278-.41457461-.34749741-1.07625859.03400748-1.47784269 0 0 .15145366-.15942491.22962344-.24170889.32651569-.34370072 1.07954696-1.03110216 1.07954696-1.03110216l9.50000005 11.5h6.5000002z" stroke-linecap="square"/><path d="m18.5 15.5000002c0-1.4999993-.559782-3.0000002-2.5-3 0-.0000002-1.46-.0000002-1.46-.0000002l-2.04-7.49999978s-2 2-4.00000004 0c-2-2-1.49999997-4.50000023-1.49999997-4.50000023l-4.5 3.9999998" stroke-linecap="round" stroke-linejoin="round"/><path d="m12.5 7.5-4.5 2.5" stroke-linecap="square"/><path d="m13 10-3.5 2" stroke-linecap="square"/><g stroke-linecap="round" stroke-linejoin="round"><path d="m1 14h2"/><path d="m1 16h4"/><path d="m1 18h6"/></g></g></svg>